<?xml version="1.0" encoding="utf-8"?>
<!-- Generator: Adobe Illustrator 16.0.0, SVG Export Plug-In . SVG Version: 6.00 Build 0)  -->
<!DOCTYPE svg PUBLIC "-//W3C//DTD SVG 1.1//EN" "http://www.w3.org/Graphics/SVG/1.1/DTD/svg11.dtd">
<svg version="1.1" xmlns="http://www.w3.org/2000/svg" xmlns:xlink="http://www.w3.org/1999/xlink" x="0px" y="0px" width="246px"
	 height="76px" viewBox="0 0 246 76" enable-background="new 0 0 246 76" xml:space="preserve">
<g id="Layer_1">
</g>
<g id="art">
</g>
<g id="Isolation_Mode">
	<g>
		<rect x="-23.948" y="-25.979" opacity="0" fill="none" stroke="#000000" width="276.797" height="125.728"/>
		<g>
			<g>
				<g>
					<g>
						<path fill="#FFFFFF" d="M105.482,34.059c0.256,0,5.592,0,6.082,0c-0.186-0.489-7.038-18.873-7.127-19.111
							c-0.247,0-6.218,0-6.463,0c-0.09,0.236-7.11,18.617-7.3,19.111c0.491,0,5.827,0,6.078,0c0.076-0.24,0.906-2.859,0.906-2.859
							h6.929C104.588,31.2,105.41,33.821,105.482,34.059z M98.899,27.116l2.281-7.379l2.224,7.379H98.899z"/>
						<path fill="#FFFFFF" d="M122.375,25.649c0.057,0.283,0.082,0.57,0.082,0.846c0,0,0,7.205,0,7.564c0.344,0,4.857,0,5.195,0
							c0-0.359,0-7.484,0-7.484c0-0.296,0-0.912,0.293-1.457c0.352-0.663,0.906-1.002,1.852-1.002c2.137,0,2.061,1.754,2.061,2.596
							c0,0,0,6.991,0,7.348c0.34,0,4.854,0,5.191,0c0-0.361,0.004-9.047,0.004-9.047L137.049,25
							c-0.023-1.293-0.053-2.755-1.27-3.946c-0.854-0.856-2.225-1.347-3.76-1.347c-3.33,0-4.26,1.767-4.521,2.357l-0.156,0.361
							l-0.182-0.352c-0.361-0.697-0.854-1.498-2.623-2.051c-0.828-0.262-1.584-0.316-2.076-0.316c-2.887,0-3.619,1.371-4.061,2.088
							l-0.377,0.613c0,0,0-2.041,0-2.35c-0.34,0-4.615,0-4.951,0c0,0.361,0,13.639,0,14c0.336,0,4.855,0,5.195,0
							c0-0.359,0-7.624,0-7.624l0.006-0.093c0.023-0.476,0.057-1.068,0.59-1.604c0.395-0.397,0.883-0.623,1.537-0.623
							C121.225,24.116,122.121,24.515,122.375,25.649z"/>
						<path fill="#FFFFFF" d="M149.689,28.922c-0.6,1.297-1.531,1.926-2.709,1.926c-0.504,0-1.229-0.121-1.811-0.704
							c-0.666-0.669-0.701-1.372-0.73-2l-0.01-0.212c0,0,9.426,0,9.795,0c-0.053-2.096-0.135-4.338-2.072-6.252
							c-1.734-1.68-3.943-2.217-5.494-2.217c-4.498,0-7.521,3.134-7.521,7.517c0,1.988,0.664,3.815,1.871,5.149
							c1.357,1.498,3.32,2.479,5.676,2.479c3.156,0,5.602-1.519,7.254-3.918C153.562,30.534,149.963,29.039,149.689,28.922z
							 M144.504,24.937c0.129-0.608,0.475-2.121,2.291-2.121c0.824,0,1.779,0.487,2.045,1.578c0.039,0.156,0.051,0.216,0.066,0.364
							l0.041,0.423h-4.5L144.504,24.937z"/>
						<path fill="#FFFFFF" d="M161.213,19.952c-0.34,0-4.641,0-4.98,0c0,0.361,0,13.746,0,14.107c0.342,0,4.83,0,5.168,0
							c0-0.354,0-6.619,0-6.619v-0.01c0.025-0.885,0.094-3.232,3.541-3.232c0.318,0,0.83,0.018,1.141,0.038c0-0.352,0-4.169,0-4.501
							c-1.939,0.008-3.107,0.361-4.557,1.653l-0.312,0.279C161.213,21.667,161.213,20.225,161.213,19.952z"/>
						<path fill="#FFFFFF" d="M167.963,14.971h5.557v3.694h-5.557V14.971z M167.963,20.042h5.557V34.01h-5.557V20.042z"/>
						<path fill="#FFFFFF" d="M188.525,32.243c0.619-0.618,1.021-1.305,1.35-1.995c-0.275-0.151-3.672-2.014-4.014-2.202
							c-0.289,0.92-0.969,2.451-2.648,2.451c-1.182,0-2.594-0.592-2.594-3.408c0-2.451,1.045-3.973,2.73-3.973
							c1.205,0,2.061,0.726,2.502,2.23c0.354-0.198,3.721-2.101,4.016-2.269c-0.271-0.442-0.627-0.931-1.104-1.407
							c-2.105-2.135-4.812-2.287-5.686-2.287c-2.393,0-4.348,0.842-5.654,2.203c-1.238,1.27-1.947,3.255-1.947,5.341
							c0,4.536,2.857,7.653,7.275,7.653C185.875,34.581,187.732,33.059,188.525,32.243z"/>
						<path fill="#FFFFFF" d="M196.25,34.364c2.531,0,3.803-0.883,4.488-1.354l0.324-0.224c0,0,0,1.018,0,1.276
							c0.33,0,4.363,0,4.953,0c-0.264-0.439-0.326-0.789-0.326-1.562v-7.816c0-0.817,0-2.05-0.795-3.068
							c-0.955-1.229-2.863-2.038-5.672-2.038c-2.117,0-3.736,0.417-4.941,1.04c-1.824,0.96-2.223,2.402-2.424,3.619
							c0.414-0.013,4.576-0.12,4.842-0.126c0.225-1.115,0.76-1.482,2.012-1.482c1.684,0,2.051,0.711,2.08,1.779l0.006,0.148
							l-0.141,0.037c-0.854,0.246-1.455,0.385-3.004,0.602c-2.342,0.309-3.889,0.51-5.137,1.783
							c-0.754,0.755-1.137,1.72-1.137,2.868C191.379,31.938,192.662,34.364,196.25,34.364z M197.424,28.46h0.006l0.004-0.005
							c0.439-0.148,0.875-0.249,1.297-0.347l0.146-0.036c0.543-0.152,1.068-0.338,1.578-0.515l0.311-0.108v0.265
							c0,0.489,0,0.982-0.287,1.61c-0.531,1.176-1.924,1.631-2.74,1.631c-1.146,0-1.57-0.628-1.57-1.117
							C196.168,29.622,196.258,28.926,197.424,28.46z"/>
						<path fill="#FFFFFF" d="M217.861,26.384c0,0,0,7.315,0,7.675c0.342,0,4.855,0,5.197,0c0-0.361,0-8.863,0-8.863
							c0-0.754,0-2.953-1.35-4.272c-0.867-0.813-2.055-1.247-3.58-1.247c-2.934,0-3.826,1.423-4.309,2.107l-0.367,0.518
							c0,0,0-1.967,0-2.27c-0.336,0-4.561,0-4.898,0c0,0.361,0,13.666,0,14.027c0.342,0,4.857,0,5.195,0c0-0.359,0-7.484,0-7.484
							c0-0.615,0.027-2.486,2.104-2.486C217.938,24.088,217.861,25.758,217.861,26.384z"/>
					</g>
					<g>
						<path fill="#FFFFFF" d="M103.816,51.637l0.332-0.133c0.844-0.338,1.572-0.623,2.269-1.369
							c0.933-0.951,1.407-2.275,1.407-3.783c0-1.928-0.836-4.457-3.184-5.457c-1.234-0.518-3.123-0.582-4.634-0.582
							c0,0-8.968,0-9.332,0c0,0.369,0,18.756,0,19.121c0.344,0,5.341,0,5.679,0c0-0.357,0-6.92,0-6.92h2.086
							c0,0,3.715,6.73,3.819,6.92c0.202,0,5.671,0,6.262,0c-0.32-0.531-4.59-7.609-4.59-7.609L103.816,51.637z M99.059,48.777
							h-2.705v-4.65h2.678c0.939,0,3.137,0.014,3.137,2.32C102.168,48.799,99.908,48.777,99.059,48.777z"/>
						<path fill="#FFFFFF" d="M125.252,52.107c0,4.551,2.398,7.678,6.113,7.678c0.775,0,1.443-0.111,2.045-0.34
							c0.758-0.289,1.012-0.578,1.359-0.975l0.33-0.379c0,0,0,1.09,0,1.342c0.34,0,4.691,0,5.031,0c0-0.365,0-18.727,0-19.094
							c-0.34,0-4.855,0-5.193,0c0,0.357,0,5.871,0,5.871v0.422l-0.371-0.332c-0.562-0.51-1.414-1.283-3.389-1.283
							C128.229,45.018,125.252,47.338,125.252,52.107z M132.719,48.807c0.732,0,1.73,0.461,2.125,1.752
							c0.188,0.562,0.227,1.131,0.227,1.816c0,0.729,0,2.08-0.787,2.893c-0.432,0.43-0.994,0.678-1.537,0.678
							c-0.594,0-1.158-0.238-1.545-0.654c-0.562-0.604-0.834-1.549-0.834-2.889c0-0.637,0.051-1.176,0.164-1.689v-0.006l0.002-0.006
							C131.023,48.945,132.33,48.807,132.719,48.807z"/>
						<path fill="#FFFFFF" d="M119.262,54.318c-0.6,1.297-1.531,1.928-2.709,1.928c-0.504,0-1.227-0.123-1.811-0.703
							c-0.67-0.672-0.703-1.373-0.729-2.002l-0.01-0.213c0,0,9.422,0,9.793,0c-0.051-2.094-0.135-4.336-2.074-6.25
							c-1.73-1.68-3.943-2.219-5.494-2.219c-4.498,0-7.52,3.133-7.52,7.52c0,1.986,0.664,3.812,1.869,5.148
							c1.359,1.496,3.32,2.477,5.678,2.477c3.156,0,5.604-1.518,7.254-3.916C123.131,55.93,119.535,54.436,119.262,54.318z
							 M114.072,50.332c0.133-0.605,0.477-2.115,2.291-2.115c0.828,0,1.781,0.484,2.051,1.574c0.039,0.156,0.049,0.217,0.061,0.363
							l0.043,0.424h-4.498L114.072,50.332z"/>
						<g>
							<path fill="#FFFFFF" d="M154.174,53.566c-0.605-0.977-0.926-2.334-0.926-3.92c0-0.742,0-3.002,1.49-4.436
								c0.404-0.406,1.291-1.084,2.699-1.084c2.578,0,3.639,2.154,4.117,3.273c0.322-0.162,4.465-2.229,4.779-2.383
								c-0.369-0.674-0.885-1.559-1.623-2.314c-1.896-1.953-4.566-3.066-7.516-3.066c-2.945,0-5.445,1.141-7.229,3.225
								c-1.576,1.842-2.482,4.539-2.482,7.135c0,2.57,0.834,5.115,2.348,6.881c1.744,2.041,4.293,3.154,7.363,3.154
								c2.889,0,5.473-1.018,7.279-2.797c0.846-0.846,1.445-1.936,1.891-2.775c-0.316-0.15-4.521-2.188-4.855-2.348
								c-0.918,2.523-2.729,3.24-4.041,3.24C156.018,55.352,154.908,54.75,154.174,53.566z"/>
							<path fill="#FFFFFF" d="M192.43,46.842c-0.617-0.58-2.406-1.98-5.74-2.012c-2.516-0.012-4.605,0.771-6.043,2.203
								c-1.338,1.328-2.045,3.33-2.045,5.506c0,1.957,0.648,3.885,1.822,5.15c1.361,1.469,3.426,2.283,5.969,2.283
								c2.508,0,4.596-0.746,6.037-2.088c1.395-1.299,2.129-3.275,2.129-5.43C194.559,50.35,193.744,48.105,192.43,46.842z
								 M186.557,56.271c-2.422,0-2.787-2.441-2.787-3.896c0-1.396,0.359-3.748,2.754-3.812c0.748-0.021,1.361,0.191,1.826,0.639
								c0.637,0.621,0.965,1.668,0.965,3.119C189.314,55.586,187.812,56.271,186.557,56.271z"/>
							<path fill="#FFFFFF" d="M207.215,51.225c-0.658-0.342-1.246-0.477-3.713-1.039l-0.109-0.027
								c-1.842-0.453-2.283-0.551-2.283-1.133c0-0.348,0.182-0.92,1.383-0.92c1.479,0,2.801,0.803,3.734,1.387
								c0.189-0.168,2.506-2.283,2.793-2.543c-0.674-0.508-1.725-1.307-3.49-1.729c-1.088-0.252-2.111-0.375-3.119-0.375
								c-2.104,0-3.725,0.576-4.82,1.615c-0.857,0.836-1.348,2.1-1.348,3.209c0,2.844,2.426,3.629,3.732,4.008
								c1.256,0.371,2.402,0.561,2.895,0.641c0.545,0.08,1.568,0.213,1.568,1.033c0,0.727-0.828,1.053-1.648,1.053
								c-0.752,0-1.502-0.152-2.293-0.473c-1.021-0.434-1.686-0.99-2.172-1.467c-0.229,0.207-2.594,2.385-2.871,2.637
								c1.156,0.938,3.48,2.869,7.389,2.869c4.465,0,6.467-2.531,6.467-5.188C209.309,53.264,208.564,51.951,207.215,51.225z"/>
							<path fill="#FFFFFF" d="M221.918,51.225c-0.66-0.342-1.248-0.477-3.719-1.039l-0.107-0.027
								c-1.84-0.453-2.281-0.551-2.281-1.133c0-0.348,0.182-0.92,1.385-0.92c1.475,0,2.797,0.803,3.734,1.387
								c0.186-0.168,2.502-2.283,2.793-2.543c-0.678-0.508-1.729-1.307-3.492-1.729c-1.09-0.252-2.111-0.375-3.121-0.375
								c-2.104,0-3.723,0.576-4.818,1.615c-0.857,0.836-1.35,2.1-1.35,3.209c0,2.844,2.43,3.629,3.732,4.008
								c1.256,0.371,2.402,0.561,2.895,0.641c0.549,0.08,1.566,0.213,1.566,1.033c0,0.727-0.826,1.053-1.648,1.053
								c-0.75,0-1.5-0.152-2.291-0.473c-1.021-0.434-1.682-0.99-2.172-1.467c-0.229,0.207-2.594,2.385-2.871,2.637
								c1.156,0.938,3.48,2.869,7.389,2.869c4.469,0,6.465-2.531,6.465-5.188C224.006,53.264,223.264,51.951,221.918,51.225z"/>
							<path fill="#FFFFFF" d="M172.74,45.346c-0.338,0-4.639,0-4.979,0c0,0.359,0,13.75,0,14.111c0.34,0,4.83,0,5.168,0
								c0-0.355,0-6.621,0-6.621v-0.01c0.027-0.885,0.094-3.236,3.541-3.236c0.316,0,0.828,0.021,1.139,0.043
								c0-0.354,0-4.17,0-4.506c-1.938,0.014-3.107,0.365-4.555,1.66l-0.314,0.277C172.74,47.064,172.74,45.623,172.74,45.346z"/>
						</g>
					</g>
				</g>
			</g>
			<g>
				<path fill="#FFFFFF" d="M38.957,3.723C20.633,3.713,5.774,18.555,5.764,36.876C5.754,55.197,20.597,70.059,38.918,70.07
					c18.32,0.006,33.189-14.838,33.193-33.152C72.129,18.594,57.276,3.737,38.957,3.723z"/>
			</g>
			<polygon fill="#EE3124" points="61.229,44.301 46.368,44.301 46.368,59.156 31.517,59.156 31.517,44.301 16.661,44.301 
				16.661,29.446 31.517,29.446 31.517,14.589 46.372,14.589 46.368,29.446 61.229,29.449 			"/>
		</g>
	</g>
</g>
</svg>
