<?xml version="1.0" encoding="utf-8"?>
<!-- Generator: Adobe Illustrator 16.0.0, SVG Export Plug-In . SVG Version: 6.00 Build 0)  -->
<!DOCTYPE svg PUBLIC "-//W3C//DTD SVG 1.1//EN" "http://www.w3.org/Graphics/SVG/1.1/DTD/svg11.dtd">
<svg version="1.1"
	 id="Layer_1" xmlns:dc="http://purl.org/dc/elements/1.1/" xmlns:cc="http://creativecommons.org/ns#" xmlns:inkscape="http://www.inkscape.org/namespaces/inkscape" xmlns:rdf="http://www.w3.org/1999/02/22-rdf-syntax-ns#" xmlns:sodipodi="http://sodipodi.sourceforge.net/DTD/sodipodi-0.dtd" xmlns:svg="http://www.w3.org/2000/svg" sodipodi:docname="Untitled-2.svg" inkscape:version="0.48.2 r9819"
	 xmlns="http://www.w3.org/2000/svg" xmlns:xlink="http://www.w3.org/1999/xlink" x="0px" y="0px" width="358.75px"
	 height="125.75px" viewBox="312.5 220.5 358.75 125.75" enable-background="new 312.5 220.5 358.75 125.75" xml:space="preserve">
<sodipodi:namedview  inkscape:cy="146.30137" inkscape:cx="596.71233" inkscape:zoom="1.3201789" showgrid="false" guidetolerance="10" gridtolerance="10" objecttolerance="10" borderopacity="1" pagecolor="#ffffff" bordercolor="#666666" id="namedview147" inkscape:current-layer="g68" inkscape:window-maximized="1" inkscape:window-y="-8" inkscape:window-x="-8" inkscape:pageshadow="2" inkscape:pageopacity="0" inkscape:window-height="1018" inkscape:window-width="1920">
	</sodipodi:namedview>
<g id="g3">
	<g id="g7">
		
			<radialGradient id="path14_1_" cx="123.5798" cy="478.9844" r="50.918" gradientTransform="matrix(0.9945 0.1045 0.1045 -0.9945 205.1561 749.7863)" gradientUnits="userSpaceOnUse">
			<stop  offset="0.7" style="stop-color:#000000"/>
			<stop  offset="1" style="stop-color:#000000;stop-opacity:0"/>
		</radialGradient>
		<path id="path14" inkscape:connector-curvature="0" fill="url(#path14_1_)" d="M428.745,291.676
			c-2.94,27.967-27.984,48.252-55.957,45.316c-27.962-2.949-48.261-27.994-45.313-55.959c2.941-27.975,27.998-48.259,55.96-45.324
			C411.404,238.654,431.69,263.707,428.745,291.676L428.745,291.676z"/>
		<path id="path16" inkscape:connector-curvature="0" fill="#FFFFFF" d="M423.627,285.547c-2.767,26.43-26.457,45.607-52.892,42.83
			c-26.438-2.771-45.61-26.463-42.834-52.896c2.773-26.438,26.451-45.605,52.884-42.833
			C407.229,235.423,426.419,259.11,423.627,285.547L423.627,285.547z"/>
		
			<radialGradient id="path33_1_" cx="120.7791" cy="485.3652" r="48.8452" fx="120.6063" fy="460.1688" gradientTransform="matrix(0.9945 0.1045 0.105 -0.9991 204.8928 752.1824)" gradientUnits="userSpaceOnUse">
			<stop  offset="0.0594" style="stop-color:#FFFFFF"/>
			<stop  offset="0.457" style="stop-color:#FDFDFD"/>
			<stop  offset="0.6" style="stop-color:#F6F6F6"/>
			<stop  offset="0.6723" style="stop-color:#EFEFEF"/>
			<stop  offset="0.8474" style="stop-color:#E0E0E0"/>
			<stop  offset="0.9693" style="stop-color:#C2C2C2"/>
			<stop  offset="1" style="stop-color:#FFFFFF"/>
		</radialGradient>
		<path id="path33" inkscape:connector-curvature="0" opacity="0.8" fill="url(#path33_1_)" enable-background="new    " d="
			M423.627,285.547c-2.767,26.43-26.457,45.607-52.892,42.83c-26.438-2.771-45.61-26.463-42.834-52.896
			c2.773-26.438,26.451-45.605,52.884-42.833C407.229,235.423,426.419,259.11,423.627,285.547L423.627,285.547z"/>
		<g id="g35" opacity="0.77" enable-background="new    ">
			<g>
				<defs>
					<path id="SVGID_1_" d="M423.62,285.547c-2.766,26.424-26.459,45.603-52.896,42.83c-26.434-2.783-45.611-26.463-42.831-52.896
						c2.78-26.438,26.456-45.608,52.893-42.833C407.219,235.43,426.41,259.11,423.62,285.547z"/>
				</defs>
				<clipPath id="SVGID_2_">
					<use xlink:href="#SVGID_1_"  overflow="visible"/>
				</clipPath>
				
					<radialGradient id="path62_1_" cx="326.3718" cy="901.083" r="52.145" fx="326.1874" fy="874.1844" gradientTransform="matrix(0.9332 -0.3594 -0.3611 -0.9375 395.6458 1239.589)" gradientUnits="userSpaceOnUse">
					<stop  offset="0.0594" style="stop-color:#FFFFFF"/>
					<stop  offset="0.5382" style="stop-color:#FDFDFD"/>
					<stop  offset="0.7105" style="stop-color:#F6F6F6"/>
					<stop  offset="0.7975" style="stop-color:#EFEFEF"/>
					<stop  offset="0.9141" style="stop-color:#E0E0E0"/>
					<stop  offset="0.9387" style="stop-color:#C2C2C2"/>
					<stop  offset="0.9568" style="stop-color:#CACACA"/>
					<stop  offset="0.9797" style="stop-color:#FFFFFF"/>
					<stop  offset="1" style="stop-color:#FFFFFF"/>
				</radialGradient>
				
					<path id="path62" inkscape:connector-curvature="0" opacity="0.8" clip-path="url(#SVGID_2_)" fill="url(#path62_1_)" enable-background="new    " d="
					M422.902,259.773c10.206,26.469-3.002,56.215-29.479,66.413c-26.48,10.199-56.214-3.006-66.411-29.483
					c-10.205-26.48,2.996-56.206,29.472-66.411C382.968,220.09,412.712,233.287,422.902,259.773L422.902,259.773z"/>
			</g>
		</g>
		<g id="g64">
			<polygon id="polygon66" fill="#ED1B2E" points="386.553,248.164 365,248.164 365,269.723 343.446,269.723 343.446,291.273 
				365,291.273 365,312.828 386.547,312.828 386.547,291.273 408.109,291.273 408.109,269.726 386.547,269.723 			"/>
		</g>
		<g id="g68">
			<polygon id="polygon75" fill="#ED1B2E" points="386.553,248.164 365,248.164 365,269.723 343.446,269.723 343.446,291.273 
				365,291.273 365,312.828 386.547,312.828 386.547,291.273 408.109,291.273 408.109,269.726 386.547,269.723 			"/>
		</g>
	</g>
	<g id="g77">
		<g id="g79">
			<path id="path81" inkscape:connector-curvature="0" fill="#6D6E70" d="M472.396,276.396c0.367,0,8.109,0,8.823,0
				c-0.271-0.71-10.212-27.381-10.341-27.728c-0.359,0-9.021,0-9.376,0c-0.135,0.341-10.313,27.008-10.592,27.728
				c0.717,0,8.454,0,8.814,0c0.117-0.348,1.313-4.148,1.313-4.148h10.058C471.098,272.248,472.291,276.048,472.396,276.396z
				 M462.842,266.322l3.31-10.706l3.229,10.706H462.842z"/>
			<path id="path83" inkscape:connector-curvature="0" fill="#6D6E70" d="M496.903,264.193c0.081,0.413,0.116,0.829,0.116,1.228
				c0,0,0,10.451,0,10.975c0.498,0,7.052,0,7.543,0c0-0.523,0-10.861,0-10.861c0-0.428,0-1.323,0.421-2.114
				c0.509-0.962,1.315-1.45,2.688-1.45c3.099,0,2.99,2.541,2.99,3.763c0,0,0,10.145,0,10.662c0.491,0,7.04,0,7.533,0
				c0-0.525,0-13.126,0-13.126v-0.018c-0.038-1.874-0.085-3.996-1.845-5.726c-1.238-1.241-3.229-1.954-5.455-1.954
				c-4.835,0-6.18,2.565-6.557,3.423l-0.227,0.521l-0.269-0.507c-0.523-1.013-1.24-2.175-3.801-2.979
				c-1.204-0.378-2.305-0.459-3.019-0.459c-4.186,0-5.25,1.99-5.89,3.032l-0.547,0.89c0,0,0-2.963,0-3.411c-0.494,0-6.694,0-7.188,0
				c0,0.526,0,19.788,0,20.313c0.492,0,7.049,0,7.543,0c0-0.523,0-11.063,0-11.063l0.006-0.135c0.035-0.689,0.082-1.549,0.854-2.325
				c0.571-0.577,1.286-0.902,2.233-0.902C495.23,261.971,496.531,262.547,496.903,264.193L496.903,264.193z"/>
			<path id="path85" inkscape:connector-curvature="0" fill="#6D6E70" d="M536.53,268.941c-0.868,1.886-2.22,2.795-3.929,2.795
				c-0.733,0-1.786-0.175-2.629-1.021c-0.964-0.971-1.019-1.989-1.059-2.903l-0.015-0.308c0,0,13.673,0,14.21,0
				c-0.078-3.039-0.198-6.29-3.005-9.069c-2.52-2.438-5.724-3.214-7.973-3.214c-6.527,0-10.912,4.543-10.912,10.904
				c0,2.886,0.959,5.533,2.716,7.47c1.964,2.172,4.82,3.596,8.229,3.596c4.577,0,8.131-2.203,10.526-5.683
				C542.148,271.281,536.928,269.112,536.53,268.941z M529.009,263.16c0.181-0.881,0.687-3.078,3.32-3.078
				c1.198,0,2.584,0.708,2.968,2.292c0.061,0.223,0.075,0.31,0.1,0.526l0.059,0.614h-6.527L529.009,263.16L529.009,263.16z"/>
			<path id="path87" inkscape:connector-curvature="0" fill="#6D6E70" d="M553.248,255.929c-0.496,0-6.734,0-7.226,0
				c0,0.523,0,19.942,0,20.467c0.496,0,7.004,0,7.495,0c0-0.515,0-9.605,0-9.605v-0.011c0.041-1.285,0.141-4.694,5.146-4.694
				c0.455,0,1.199,0.026,1.651,0.056c0-0.509,0-6.045,0-6.528c-2.814,0.011-4.511,0.525-6.615,2.4l-0.451,0.402
				C553.248,258.416,553.248,256.325,553.248,255.929z"/>
			<path id="path89" inkscape:connector-curvature="0" fill="#6D6E70" d="M563.039,248.703h8.063v5.358h-8.063V248.703z
				 M563.039,256.056h8.063v20.267h-8.063V256.056z"/>
			<path id="path91" inkscape:connector-curvature="0" fill="#6D6E70" d="M592.873,273.759c0.899-0.895,1.484-1.892,1.959-2.895
				c-0.402-0.221-5.329-2.921-5.823-3.195c-0.421,1.336-1.405,3.558-3.841,3.558c-1.714,0-3.767-0.859-3.767-4.946
				c0-3.555,1.521-5.761,3.964-5.761c1.748,0,2.991,1.051,3.631,3.235c0.51-0.29,5.396-3.047,5.82-3.292
				c-0.394-0.641-0.903-1.35-1.599-2.042c-3.054-3.098-6.981-3.317-8.25-3.317c-3.467,0-6.304,1.22-8.203,3.196
				c-1.789,1.843-2.823,4.721-2.823,7.747c0,6.583,4.146,11.103,10.554,11.103C589.029,277.15,591.722,274.944,592.873,273.759
				L592.873,273.759z"/>
			<path id="path93" inkscape:connector-curvature="0" fill="#6D6E70" d="M604.081,276.837c3.674,0,5.519-1.28,6.509-1.965
				l0.474-0.324c0,0,0,1.475,0,1.851c0.474,0,6.331,0,7.186,0c-0.386-0.636-0.474-1.146-0.474-2.268v-11.338
				c0-1.187,0-2.973-1.154-4.452c-1.383-1.783-4.153-2.957-8.225-2.957c-3.074,0-5.425,0.605-7.174,1.51
				c-2.646,1.391-3.223,3.484-3.514,5.247c0.597-0.016,6.637-0.17,7.024-0.183c0.324-1.615,1.099-2.15,2.914-2.15
				c2.444,0,2.978,1.033,3.023,2.584l0.006,0.216l-0.205,0.05c-1.236,0.359-2.113,0.562-4.358,0.874
				c-3.396,0.45-5.64,0.739-7.452,2.587c-1.093,1.094-1.647,2.495-1.647,4.16C597.014,273.319,598.872,276.837,604.081,276.837
				L604.081,276.837z M605.783,268.272h0.005l0.01-0.006c0.635-0.215,1.27-0.363,1.88-0.506c0,0,0.199-0.05,0.213-0.05
				c0.788-0.221,1.553-0.491,2.29-0.746l0.456-0.159v0.384c0,0.709,0,1.425-0.421,2.336c-0.772,1.707-2.79,2.368-3.977,2.368
				c-1.667,0-2.274-0.913-2.274-1.621C603.965,269.958,604.094,268.948,605.783,268.272L605.783,268.272z"/>
			<path id="path95" inkscape:connector-curvature="0" fill="#6D6E70" d="M635.434,265.259c0,0,0,10.614,0,11.137
				c0.496,0,7.045,0,7.542,0c0-0.525,0-12.86,0-12.86c0-1.093,0-4.283-1.958-6.196c-1.258-1.183-2.982-1.811-5.195-1.811
				c-4.257,0-5.552,2.064-6.25,3.055l-0.531,0.753c0,0,0-2.854,0-3.295c-0.492,0-6.616,0-7.107,0c0,0.524,0,19.83,0,20.354
				c0.497,0,7.046,0,7.536,0c0-0.523,0-10.861,0-10.861c0-0.888,0.041-3.604,3.053-3.604
				C635.544,261.931,635.434,264.351,635.434,265.259L635.434,265.259z"/>
		</g>
		<g id="g97">
			<path id="path99" inkscape:connector-curvature="0" fill="#6D6E70" d="M469.976,301.896l0.481-0.191
				c1.226-0.488,2.283-0.906,3.296-1.992c1.351-1.377,2.04-3.295,2.04-5.484c0-2.795-1.214-6.467-4.619-7.916
				c-1.789-0.752-4.531-0.846-6.725-0.846c0,0-13.01,0-13.538,0c0,0.535,0,27.205,0,27.738c0.5,0,7.75,0,8.24,0
				c0-0.519,0-10.037,0-10.037h3.021c0,0,5.394,9.762,5.543,10.037c0.296,0,8.229,0,9.083,0c-0.462-0.766-6.656-11.039-6.656-11.039
				L469.976,301.896z M463.075,297.746h-3.924v-6.742h3.883c1.362,0,4.553,0.018,4.553,3.363
				C467.587,297.781,464.304,297.746,463.075,297.746z"/>
			<path id="path101" inkscape:connector-curvature="0" fill="#6D6E70" d="M501.074,302.576c0,6.604,3.482,11.143,8.872,11.143
				c1.123,0,2.095-0.162,2.965-0.496c1.101-0.422,1.468-0.836,1.972-1.412l0.481-0.547c0,0,0,1.578,0,1.941c0.488,0,6.81,0,7.3,0
				c0-0.533,0-27.164,0-27.697c-0.497,0-7.046,0-7.536,0c0,0.521,0,8.52,0,8.52v0.611l-0.538-0.481
				c-0.818-0.736-2.053-1.863-4.918-1.863C505.396,292.293,501.074,295.662,501.074,302.576L501.074,302.576z M511.911,297.793
				c1.062,0,2.509,0.666,3.081,2.539c0.272,0.816,0.328,1.641,0.328,2.635c0,1.059,0,3.018-1.141,4.199
				c-0.625,0.619-1.444,0.98-2.233,0.98c-0.858,0-1.678-0.349-2.239-0.949c-0.814-0.875-1.211-2.248-1.211-4.189
				c0-0.926,0.074-1.705,0.234-2.453v-0.008l0.006-0.006C509.445,297.992,511.346,297.793,511.911,297.793L511.911,297.793z"/>
			<path id="path103" inkscape:connector-curvature="0" fill="#6D6E70" d="M492.39,305.789c-0.871,1.879-2.229,2.793-3.936,2.793
				c-0.73,0-1.783-0.178-2.625-1.02c-0.975-0.974-1.021-1.988-1.059-2.9l-0.012-0.312c0,0,13.67,0,14.207,0
				c-0.078-3.035-0.198-6.287-3.011-9.068c-2.509-2.436-5.723-3.219-7.977-3.219c-6.521,0-10.907,4.549-10.907,10.91
				c0,2.883,0.965,5.53,2.718,7.473c1.97,2.166,4.813,3.586,8.233,3.586c4.581,0,8.13-2.197,10.521-5.681
				C497.995,308.123,492.784,305.957,492.39,305.789L492.39,305.789z M484.855,300.006c0.196-0.881,0.693-3.07,3.32-3.07
				c1.209,0,2.589,0.705,2.979,2.283c0.061,0.227,0.071,0.313,0.088,0.527l0.065,0.617h-6.528L484.855,300.006L484.855,300.006z"/>
			<g id="g105">
				<path id="path107" inkscape:connector-curvature="0" fill="#6D6E70" d="M543.034,304.697c-0.88-1.42-1.342-3.391-1.342-5.689
					c0-1.074,0-4.352,2.164-6.432c0.584-0.59,1.873-1.572,3.91-1.572c3.742,0,5.28,3.119,5.979,4.748
					c0.468-0.236,6.473-3.232,6.932-3.459c-0.535-0.975-1.283-2.26-2.354-3.359c-2.75-2.828-6.625-4.445-10.902-4.445
					c-4.274,0-7.903,1.654-10.489,4.675c-2.287,2.676-3.604,6.59-3.604,10.353c0,3.729,1.21,7.42,3.411,9.983
					c2.529,2.959,6.226,4.578,10.682,4.578c4.188,0,7.938-1.478,10.56-4.062c1.227-1.225,2.093-2.807,2.741-4.024
					c-0.459-0.218-6.555-3.173-7.04-3.402c-1.332,3.66-3.957,4.693-5.863,4.693C545.71,307.281,544.105,306.414,543.034,304.697
					L543.034,304.697z"/>
				<path id="path109" inkscape:connector-curvature="0" fill="#6D6E70" d="M598.536,294.939c-0.893-0.842-3.493-2.867-8.323-2.918
					c-3.651-0.015-6.688,1.119-8.771,3.199c-1.94,1.926-2.968,4.827-2.968,7.985c0,2.838,0.943,5.637,2.643,7.469
					c1.978,2.135,4.972,3.313,8.663,3.313c3.638,0,6.664-1.078,8.756-3.029c2.025-1.883,3.091-4.75,3.091-7.875
					C601.627,300.029,600.445,296.775,598.536,294.939z M590.015,308.621c-3.511,0-4.04-3.543-4.04-5.654
					c0-2.023,0.523-5.438,3.993-5.531c1.088-0.028,1.977,0.281,2.648,0.931c0.925,0.899,1.402,2.416,1.402,4.522
					C594.02,307.623,591.842,308.621,590.015,308.621L590.015,308.621z"/>
				<path id="path111" inkscape:connector-curvature="0" fill="#6D6E70" d="M619.991,301.301c-0.96-0.496-1.812-0.695-5.392-1.508
					l-0.157-0.041c-2.672-0.662-3.31-0.799-3.31-1.645c0-0.502,0.263-1.332,2.005-1.332c2.141,0,4.058,1.164,5.415,2.012
					c0.276-0.242,3.636-3.316,4.052-3.689c-0.978-0.738-2.503-1.895-5.063-2.508c-1.578-0.367-3.063-0.545-4.524-0.545
					c-3.052,0-5.403,0.836-6.993,2.346c-1.24,1.209-1.953,3.043-1.953,4.65c0,4.127,3.519,5.266,5.417,5.814
					c1.819,0.543,3.482,0.815,4.195,0.934c0.795,0.113,2.278,0.309,2.278,1.492c0,1.059-1.203,1.528-2.393,1.528
					c-1.091,0-2.185-0.223-3.327-0.684c-1.481-0.631-2.446-1.437-3.155-2.129c-0.326,0.301-3.759,3.463-4.161,3.828
					c1.678,1.358,5.052,4.162,10.72,4.162c6.476,0,9.382-3.672,9.382-7.527C623.026,304.256,621.944,302.354,619.991,301.301
					L619.991,301.301z"/>
				<path id="path113" inkscape:connector-curvature="0" fill="#6D6E70" d="M641.32,301.301c-0.959-0.496-1.809-0.695-5.396-1.508
					l-0.154-0.041c-2.669-0.662-3.312-0.799-3.312-1.645c0-0.502,0.267-1.332,2.009-1.332c2.143,0,4.061,1.164,5.423,2.012
					c0.263-0.242,3.625-3.316,4.052-3.689c-0.981-0.738-2.508-1.895-5.069-2.508c-1.584-0.367-3.062-0.545-4.524-0.545
					c-3.056,0-5.402,0.836-6.992,2.346c-1.246,1.209-1.959,3.043-1.959,4.65c0,4.127,3.525,5.266,5.413,5.814
					c1.825,0.543,3.488,0.815,4.202,0.934c0.798,0.113,2.273,0.309,2.273,1.492c0,1.059-1.202,1.528-2.389,1.528
					c-1.094,0-2.181-0.223-3.33-0.684c-1.48-0.631-2.436-1.437-3.148-2.129c-0.333,0.301-3.766,3.463-4.169,3.828
					c1.683,1.358,5.053,4.162,10.724,4.162c6.479,0,9.379-3.672,9.379-7.527C644.35,304.256,643.273,302.354,641.32,301.301
					L641.32,301.301z"/>
				<path id="path115" inkscape:connector-curvature="0" fill="#6D6E70" d="M569.971,292.77c-0.49,0-6.729,0-7.22,0
					c0,0.523,0,19.949,0,20.474c0.49,0,7.007,0,7.499,0c0-0.517,0-9.604,0-9.604v-0.017c0.036-1.279,0.131-4.695,5.136-4.695
					c0.456,0,1.198,0.031,1.648,0.064c0-0.515,0-6.052,0-6.535c-2.812,0.021-4.506,0.528-6.606,2.403l-0.457,0.404
					C569.971,295.264,569.971,293.17,569.971,292.77L569.971,292.77z"/>
			</g>
		</g>
	</g>
</g>
<g id="g117">
</g>
<g id="g119">
</g>
<g id="g121">
</g>
<g id="g123">
</g>
<g id="g125">
</g>
<g id="g127">
</g>
<g id="g129">
</g>
<g id="g131">
</g>
<g id="g133">
</g>
<g id="g135">
</g>
<g id="g137">
</g>
<g id="g139">
</g>
<g id="g141">
</g>
<g id="g143">
</g>
<g id="g145">
</g>
</svg>
